<svg class="icon icon-briefcase" width="25" height="25" viewBox="0 0 25 25" fill="none" xmlns="http://www.w3.org/2000/svg">
    <path d="M20.873 7.95488H4.87305C3.76848 7.95488 2.87305 8.85031 2.87305 9.95488V19.9549C2.87305 21.0594 3.76848 21.9549 4.87305 21.9549H20.873C21.9776 21.9549 22.873 21.0594 22.873 19.9549V9.95488C22.873 8.85031 21.9776 7.95488 20.873 7.95488Z" stroke="var(--color-gray)" stroke-width="2" stroke-linecap="round" stroke-linejoin="round" />
    <path d="M16.873 21.9549V5.95488C16.873 5.42445 16.6623 4.91574 16.2873 4.54067C15.9122 4.16559 15.4035 3.95488 14.873 3.95488H10.873C10.3426 3.95488 9.83391 4.16559 9.45883 4.54067C9.08376 4.91574 8.87305 5.42445 8.87305 5.95488V21.9549" stroke="var(--color-gray)" stroke-width="2" stroke-linecap="round" stroke-linejoin="round" />
</svg>