<svg class="icon icon-document" xmlns="http://www.w3.org/2000/svg" xmlns:xlink="http://www.w3.org/1999/xlink" version="1.1" viewBox="0 0 512 512" style="enable-background:new 0 0 512 512;" xml:space="preserve">
  <g>
    <g>
      <g>
        <path d="M202.645,256h64c11.782,0,21.333-9.551,21.333-21.333c0-11.782-9.551-21.333-21.333-21.333h-64     c-11.782,0-21.333,9.551-21.333,21.333C181.312,246.449,190.863,256,202.645,256z" />
        <path d="M394.645,298.667h-192c-11.782,0-21.333,9.551-21.333,21.333s9.551,21.333,21.333,21.333h192     c11.782,0,21.333-9.551,21.333-21.333S406.427,298.667,394.645,298.667z" />
        <path d="M394.645,384h-192c-11.782,0-21.333,9.551-21.333,21.333c0,11.782,9.551,21.333,21.333,21.333h192     c11.782,0,21.333-9.551,21.333-21.333C415.979,393.551,406.427,384,394.645,384z" />
        <path d="M475.197,221.213c-0.026-0.033-0.052-0.066-0.078-0.099c-0.435-0.522-0.891-1.036-1.388-1.533l-57.752-57.752V21.333     C415.979,9.551,406.427,0,394.645,0H53.312C41.53,0,31.979,9.551,31.979,21.333v405.333c0,11.782,9.551,21.333,21.333,21.333h64     v42.667c0,11.782,9.551,21.333,21.333,21.333h320c11.782,0,21.333-9.551,21.333-21.333V235.743     C480.268,230.749,478.803,225.588,475.197,221.213z M351.979,158.17l55.163,55.163h-55.163V158.17z M74.645,405.333V42.667     h298.667v76.497L345.73,91.582c-0.497-0.497-1.011-0.953-1.533-1.388c-0.032-0.027-0.066-0.052-0.099-0.078     c-4.375-3.606-9.535-5.071-14.529-4.782H138.645c-11.782,0-21.333,9.551-21.333,21.333v298.667H74.645z M159.979,469.333v-42.667     V128h149.333v106.667c0,11.782,9.551,21.333,21.333,21.333h106.667v213.333H159.979z" />
      </g>
    </g>
  </g>
</svg>