<!--?xml version="1.0" standalone="no"?-->
<svg id="sw-js-blob-svg" viewBox="0 0 100 100" xmlns="http://www.w3.org/2000/svg">
    <defs>
        <linearGradient id="sw-gradient" x1="0" x2="1" y1="1" y2="0">
            <stop id="stop1" stop-color="rgba(248, 117, 55, 1)" offset="0%"></stop>
            <stop id="stop2" stop-color="rgba(251, 168, 31, 1)" offset="100%"></stop>
        </linearGradient>
    </defs>
    <path fill="url(#sw-gradient)" d="M26,-35.4C32.7,-31,36.2,-22,36.4,-13.7C36.6,-5.4,33.3,2.2,31.5,11C29.7,19.8,29.3,29.8,24.3,34.9C19.3,40,9.6,40.1,0.7,39.2C-8.2,38.2,-16.5,36.1,-21.1,30.9C-25.7,25.7,-26.7,17.3,-29.7,9.4C-32.7,1.4,-37.6,-6.2,-36.9,-13.1C-36.2,-20,-29.8,-26.1,-22.7,-30.4C-15.6,-34.6,-7.8,-37,0.9,-38.3C9.7,-39.6,19.4,-39.8,26,-35.4Z" width="100%" height="100%" transform="translate(50 50)" stroke-width="0" style="transition: all 0.3s ease 0s;"></path>
</svg>